<svg xmlns="http://www.w3.org/2000/svg" xmlns:xlink="http://www.w3.org/1999/xlink" viewBox="0 0 1065.74 378.44"><defs><style>.cls-1{fill:none;}.cls-2{fill:#3dc5c9;}.cls-3{fill:#1d3c5b;}.cls-4{clip-path:url(#clip-path);}</style><clipPath id="clip-path" transform="translate(-0.54 -5.98)"><polygon class="cls-1" points="241.95 221.25 121.25 160.38 0 221.25 0 0 241.95 0 241.95 221.25"/></clipPath></defs><title>womack-logo</title><g id="Layer_2" data-name="Layer 2"><g id="Layer_1-2" data-name="Layer 1"><path class="cls-2" d="M344.31,44.42l-21.84,78.22h-8.74l-26.07-91h8.74l22,80.13,22.39-80.13h7.1l22.25,80.13,22-80.13h8.74l-25.94,91h-8.74Z" transform="translate(-0.54 -5.98)"/><path class="cls-2" d="M451.61,30.09c26.62,0,44.23,20.47,44.23,47.09s-17.61,47.09-44.23,47.09-44.23-20.47-44.23-47.09S424.85,30.09,451.61,30.09Zm0,7.1c-22.11,0-36,16.79-36,40,0,22.93,13.92,40,36,40,21.84,0,36-17.06,36-40C487.65,54,473.45,37.19,451.61,37.19Z" transform="translate(-0.54 -5.98)"/><path class="cls-2" d="M591,41.83l-33.17,80.81h-3L521.47,41.83v80.81h-7.78v-91h11.6l31,75.49,30.85-75.49h11.74v91H591Z" transform="translate(-0.54 -5.98)"/><path class="cls-2" d="M677.73,100.25H629.27l-9.15,22.39h-8.74l37.27-91h9.69l37.27,91h-8.74Zm-46-7.1h43.55L653.43,39.24Z" transform="translate(-0.54 -5.98)"/><path class="cls-2" d="M699.27,77.18c0-28,20.34-47.09,45.87-47.09,14.74,0,25.66,6.42,33.44,16.11L772,50.43a33.22,33.22,0,0,0-26.89-13.24c-21.16,0-37.67,16.24-37.67,40,0,23.48,16.52,40,37.67,40A33.22,33.22,0,0,0,772,103.94l6.55,4.1c-8.05,10-18.7,16.24-33.44,16.24C719.61,124.28,699.27,105.17,699.27,77.18Z" transform="translate(-0.54 -5.98)"/><path class="cls-2" d="M810.43,79.78l-10.1,11.06v31.81h-7.78v-91h7.78V81.42l44-49.82h10L815.48,75l42.45,47.64H848Z" transform="translate(-0.54 -5.98)"/><path class="cls-3" d="M292.92,156.09h24.17c11.23,0,17.36,7.59,17.36,16.66s-6.2,16.5-17.36,16.5H303.92v18.52h-11Zm22.7,9.45h-11.7V179.8h11.7c4.34,0,7.59-2.79,7.59-7.13S320,165.55,315.62,165.55Z" transform="translate(-0.54 -5.98)"/><path class="cls-3" d="M339.8,170.35h9.84v5.11a16,16,0,0,1,11.93-6v9.61a13,13,0,0,0-2.71-.23c-3.26,0-7.59,1.78-9.22,4.18v24.72H339.8Z" transform="translate(-0.54 -5.98)"/><path class="cls-3" d="M364.41,189c0-10.62,7.44-19.6,19.76-19.6S404,178.41,404,189s-7.44,19.68-19.84,19.68S364.41,199.72,364.41,189Zm29.37,0c0-5.81-3.49-10.85-9.61-10.85s-9.53,5-9.53,10.85,3.41,10.93,9.53,10.93S393.78,194.91,393.78,189Z" transform="translate(-0.54 -5.98)"/><path class="cls-3" d="M410.7,222V170.35h9.84v4.73a14.46,14.46,0,0,1,11.55-5.65c9.61,0,16.58,7.13,16.58,19.6s-7,19.68-16.58,19.68A14.3,14.3,0,0,1,420.54,203V222ZM429,178.17a11,11,0,0,0-8.45,4.26v13.25a11.28,11.28,0,0,0,8.45,4.26c5.65,0,9.45-4.42,9.45-10.93S434.64,178.17,429,178.17Z" transform="translate(-0.54 -5.98)"/><path class="cls-3" d="M472.7,169.42c11.16,0,18.75,8.37,18.75,20.61v2.17H463.63c.62,4.73,4.42,8.68,10.77,8.68a15.31,15.31,0,0,0,10-3.72l4.34,6.35c-3.8,3.49-9.61,5.19-15.42,5.19-11.39,0-20-7.67-20-19.68C453.33,178.17,461.31,169.42,472.7,169.42Zm-9.22,16.12h18.44c-.23-3.56-2.71-8.29-9.22-8.29C466.58,177.25,463.94,181.82,463.48,185.54Z" transform="translate(-0.54 -5.98)"/><path class="cls-3" d="M497.94,170.35h9.84v5.11a16,16,0,0,1,11.93-6v9.61a13,13,0,0,0-2.71-.23c-3.26,0-7.59,1.78-9.22,4.18v24.72h-9.84Z" transform="translate(-0.54 -5.98)"/><path class="cls-3" d="M528.85,198.48V178.95h-6.2v-8.6h6.2V160.12h9.92v10.23h7.59v8.6h-7.59v16.89c0,2.32,1.24,4.11,3.41,4.11a5.37,5.37,0,0,0,3.41-1.08l2.09,7.44c-1.47,1.32-4.1,2.4-8.21,2.4C532.56,208.7,528.85,205.14,528.85,198.48Z" transform="translate(-0.54 -5.98)"/><path class="cls-3" d="M557.72,214.2c2.56,0,4.26-.7,5.19-2.71l1.39-3.18-15.19-38h10.54l9.76,26,9.76-26H589.8l-17.59,43.55c-2.79,7.05-7.75,8.91-14.18,9.07a26.91,26.91,0,0,1-4.88-.54l1.47-8.83A8.49,8.49,0,0,0,557.72,214.2Z" transform="translate(-0.54 -5.98)"/><path class="cls-3" d="M659.23,170.58l-14.57,37.19h-4.8l-14.57-37.19v37.19h-11V156.09h15.42l12.55,32.23,12.55-32.23h15.5v51.68H659.23Z" transform="translate(-0.54 -5.98)"/><path class="cls-3" d="M702.67,203.9c-2.56,3-7,4.8-11.86,4.8-6,0-13-4-13-12.4,0-8.76,7.05-11.93,13-11.93,5,0,9.38,1.55,11.86,4.57v-5.19c0-3.8-3.26-6.28-8.21-6.28a15.75,15.75,0,0,0-10.93,4.42l-3.72-6.59a24.56,24.56,0,0,1,16.35-5.89c8.52,0,16.35,3.41,16.35,14.18v24.18h-9.84Zm0-9.76c-1.63-2.17-4.73-3.26-7.9-3.26-3.87,0-7.05,2.09-7.05,5.66s3.18,5.5,7.05,5.5c3.18,0,6.28-1.08,7.9-3.26Z" transform="translate(-0.54 -5.98)"/><path class="cls-3" d="M746.63,185.15c0-5.19-2.71-7-6.9-7a10.67,10.67,0,0,0-8.52,4.42v25.18h-9.84V170.35h9.84v4.88a17.14,17.14,0,0,1,13.1-5.81c8.21,0,12.16,4.65,12.16,11.93v26.42h-9.84Z" transform="translate(-0.54 -5.98)"/><path class="cls-3" d="M787.94,203.9c-2.56,3-7,4.8-11.86,4.8-6,0-13-4-13-12.4,0-8.76,7.05-11.93,13-11.93,5,0,9.38,1.55,11.86,4.57v-5.19c0-3.8-3.26-6.28-8.21-6.28a15.75,15.75,0,0,0-10.93,4.42l-3.72-6.59a24.56,24.56,0,0,1,16.35-5.89c8.52,0,16.35,3.41,16.35,14.18v24.18h-9.84Zm0-9.76c-1.63-2.17-4.73-3.26-7.9-3.26-3.87,0-7.05,2.09-7.05,5.66s3.18,5.5,7.05,5.5c3.18,0,6.28-1.08,7.9-3.26Z" transform="translate(-0.54 -5.98)"/><path class="cls-3" d="M810.55,210.25c3,3.33,7,4.65,11.7,4.65s10.31-2.09,10.31-9.45v-3.8A14.57,14.57,0,0,1,821,207.54c-9.38,0-16.5-6.59-16.5-19.06,0-12.24,7.05-19.06,16.5-19.06a14.41,14.41,0,0,1,11.54,5.73v-4.81h9.92v34.87c0,14.26-11,17.74-20.22,17.74-6.43,0-11.47-1.47-16.11-5.58Zm22-27.81a10.67,10.67,0,0,0-8.44-4.26c-5.58,0-9.45,3.87-9.45,10.31s3.87,10.3,9.45,10.3a10.9,10.9,0,0,0,8.44-4.26Z" transform="translate(-0.54 -5.98)"/><path class="cls-3" d="M868.57,169.42c11.16,0,18.75,8.37,18.75,20.61v2.17H859.5c.62,4.73,4.42,8.68,10.77,8.68a15.31,15.31,0,0,0,10-3.72l4.34,6.35c-3.8,3.49-9.61,5.19-15.42,5.19-11.39,0-20-7.67-20-19.68C849.2,178.17,857.18,169.42,868.57,169.42Zm-9.22,16.12h18.44c-.23-3.56-2.71-8.29-9.22-8.29C862.45,177.25,859.81,181.82,859.35,185.54Z" transform="translate(-0.54 -5.98)"/><path class="cls-3" d="M940.23,184.14c0-3.49-1.55-6-5.58-6a9.94,9.94,0,0,0-7.75,4.34v25.26H917V184.14c0-3.49-1.55-6-5.58-6-3.41,0-6.28,2.32-7.75,4.42v25.18h-9.84V170.35h9.84v4.88c1.55-2.25,6.51-5.81,12.24-5.81,5.5,0,9,2.56,10.38,6.82a15.88,15.88,0,0,1,12.86-6.82c6.9,0,11,3.64,11,11.31v27h-9.92Z" transform="translate(-0.54 -5.98)"/><path class="cls-3" d="M976.17,169.42c11.16,0,18.75,8.37,18.75,20.61v2.17H967.1c.62,4.73,4.42,8.68,10.77,8.68a15.31,15.31,0,0,0,10-3.72l4.34,6.35c-3.8,3.49-9.61,5.19-15.42,5.19-11.39,0-20-7.67-20-19.68C956.8,178.17,964.78,169.42,976.17,169.42Zm-9.22,16.12h18.44c-.23-3.56-2.71-8.29-9.22-8.29C970,177.25,967.41,181.82,966.95,185.54Z" transform="translate(-0.54 -5.98)"/><path class="cls-3" d="M1026.67,185.15c0-5.19-2.71-7-6.9-7a10.67,10.67,0,0,0-8.52,4.42v25.18h-9.84V170.35h9.84v4.88a17.14,17.14,0,0,1,13.1-5.81c8.21,0,12.16,4.65,12.16,11.93v26.42h-9.84Z" transform="translate(-0.54 -5.98)"/><path class="cls-3" d="M1047.45,198.48V178.95h-6.2v-8.6h6.2V160.12h9.92v10.23H1065v8.6h-7.59v16.89c0,2.32,1.24,4.11,3.41,4.11a5.37,5.37,0,0,0,3.41-1.08l2.09,7.44c-1.47,1.32-4.1,2.4-8.21,2.4C1051.17,208.7,1047.45,205.14,1047.45,198.48Z" transform="translate(-0.54 -5.98)"/><g class="cls-4"><polygon class="cls-2" points="45.19 0 45.19 339.38 90.38 339.38 90.38 26.47 45.19 0"/><polygon class="cls-3" points="45.19 0 45.19 339.38 0 339.38 0 26.47 45.19 0"/><polygon class="cls-2" points="196.22 0 196.22 339.38 241.41 339.38 241.41 26.47 196.22 0"/><polygon class="cls-3" points="196.22 0 196.22 339.38 151.03 339.38 151.03 26.47 196.22 0"/><polygon class="cls-2" points="120.7 39.06 120.7 378.44 165.9 378.44 165.9 65.53 120.7 39.06"/><polygon class="cls-3" points="120.7 39.06 120.7 378.44 75.52 378.44 75.52 65.53 120.7 39.06"/></g></g></g></svg>