<svg xmlns="http://www.w3.org/2000/svg" xmlns:xlink="http://www.w3.org/1999/xlink" viewBox="0 0 1059.17 336.28"><defs><style>.cls-1{fill:none;}.cls-2{fill:#00abc7;}.cls-3{clip-path:url(#clip-path);}.cls-4{fill:#103c60;}</style><clipPath id="clip-path" transform="translate(-0.48 -5.31)"><polygon class="cls-1" points="214.99 196.59 107.74 142.51 0 196.59 0 0 214.99 0 214.99 196.59"/></clipPath></defs><title>womack-realty-logoicon</title><g id="Layer_2" data-name="Layer 2"><g id="Vector_Smart_Object_Image" data-name="Vector Smart Object Image"><path class="cls-2" d="M290.75,40,274.63,97.72h-6.45L248.93,30.5h6.45l16.23,59.15L288.13,30.5h5.24L309.8,89.65,326,30.5h6.45L313.33,97.72h-6.45Z" transform="translate(-0.48 -5.31)"/><path class="cls-2" d="M370,29.39c19.65,0,32.65,15.12,32.65,34.77s-13,34.77-32.65,34.77-32.65-15.12-32.65-34.77S350.21,29.39,370,29.39Zm0,5.24c-16.32,0-26.6,12.4-26.6,29.53,0,16.93,10.28,29.53,26.6,29.53,16.12,0,26.61-12.6,26.61-29.53C396.57,47,386.08,34.63,370,34.63Z" transform="translate(-0.48 -5.31)"/><path class="cls-2" d="M472.83,38.06,448.34,97.72h-2.21L421.54,38.06V97.72h-5.75V30.5h8.57l22.88,55.73L470,30.5h8.67V97.72h-5.85Z" transform="translate(-0.48 -5.31)"/><path class="cls-2" d="M536.89,81.19H501.12l-6.75,16.53h-6.45L515.43,30.5h7.15L550.1,97.72h-6.45Zm-34-5.24h32.15L519,36.14Z" transform="translate(-0.48 -5.31)"/><path class="cls-2" d="M552.8,64.16c0-20.66,15-34.77,33.86-34.77a30.46,30.46,0,0,1,24.69,11.89l-4.84,3.13a24.51,24.51,0,0,0-19.85-9.78c-15.62,0-27.82,12-27.82,29.53,0,17.33,12.2,29.53,27.82,29.53a24.54,24.54,0,0,0,19.85-9.78l4.84,3c-6,7.36-13.81,12-24.69,12C567.81,98.93,552.8,84.82,552.8,64.16Z" transform="translate(-0.48 -5.31)"/><path class="cls-2" d="M634.86,66.07l-7.46,8.17V97.72h-5.74V30.5h5.74V67.28L659.85,30.5h7.36L638.59,62.55l31.34,35.17h-7.36Z" transform="translate(-0.48 -5.31)"/><g class="cls-3"><polygon class="cls-2" points="40.16 0 40.16 301.57 80.31 301.57 80.31 23.52 40.16 0"/><polygon class="cls-4" points="40.16 0 40.16 301.57 0 301.57 0 23.52 40.16 0"/><polygon class="cls-2" points="174.36 0 174.36 301.57 214.51 301.57 214.51 23.52 174.36 0"/><polygon class="cls-4" points="174.36 0 174.36 301.57 134.2 301.57 134.2 23.52 174.36 0"/><polygon class="cls-2" points="107.26 34.71 107.26 336.28 147.41 336.28 147.41 58.23 107.26 34.71"/><polygon class="cls-4" points="107.26 34.71 107.26 336.28 67.1 336.28 67.1 58.23 107.26 34.71"/></g><path class="cls-2" d="M754.11,97.72,734.29,70H714.62V97.72h-5.51V29.87h26.57c7.46,0,13.79,2.4,17.83,6.75a18.81,18.81,0,0,1,4.83,12.73v.19c0,10.33-6.67,17.56-17.89,19.45l20.61,28.73Zm-19-33.12c10.74,0,17.68-5.84,17.68-14.87v-.19c0-8.9-6.51-14.21-17.42-14.21H714.62V64.6Z" transform="translate(-0.48 -5.31)"/><path class="cls-2" d="M709.55,30.31h26.13c7.64,0,13.77,2.58,17.5,6.6a18.34,18.34,0,0,1,4.71,12.44v.19c0,11.19-7.73,17.6-18.21,19.13l20.53,28.61h-5.87L734.52,69.53H714.17V97.28h-4.62ZM735.15,65c10.39,0,18.12-5.65,18.12-15.31v-.19c0-9-6.57-14.64-17.86-14.64H714.17V65Z" transform="translate(-0.48 -5.31)"/><polygon class="cls-2" points="772.87 92.41 772.87 24.56 818.01 24.56 818.01 30.02 778.38 30.02 778.38 55.47 814.01 55.47 814.01 60.93 778.38 60.93 778.38 86.94 818.46 86.94 818.46 92.41 772.87 92.41"/><path class="cls-2" d="M773.8,30.31h44.25V34.9H778.42V61.21h35.63V65.8H778.42V92.69h40.07v4.59H773.8Z" transform="translate(-0.48 -5.31)"/><path class="cls-2" d="M885,97.72,877.11,79H841l-7.9,18.76h-5.77l29.34-68.33h5l29.34,68.33ZM874.79,73.6,859.1,36.42,843.33,73.6Z" transform="translate(-0.48 -5.31)"/><path class="cls-2" d="M857,29.83h4.44l29,67.45h-5.06l-7.91-18.75h-36.7L832.8,97.28H828ZM875.45,74,859.1,35.28,842.66,74Z" transform="translate(-0.48 -5.31)"/><polygon class="cls-2" points="902.6 92.41 902.6 24.56 908.11 24.56 908.11 86.94 944.63 86.94 944.63 92.41 902.6 92.41"/><path class="cls-2" d="M903.53,30.31h4.62V92.69h36.52v4.59H903.53Z" transform="translate(-0.48 -5.31)"/><polygon class="cls-2" points="965.96 92.41 965.96 30.02 944.28 30.02 944.28 24.56 993.15 24.56 993.15 30.02 971.47 30.02 971.47 92.41 965.96 92.41"/><path class="cls-2" d="M966.88,34.9H945.2V30.31h48V34.9H971.51V97.28h-4.63Z" transform="translate(-0.48 -5.31)"/><polygon class="cls-2" points="1026.56 92.41 1026.56 65.6 999.53 24.56 1006.37 24.56 1029.4 60.16 1052.53 24.56 1059.1 24.56 1032.07 65.5 1032.07 92.41 1026.56 92.41"/><path class="cls-2" d="M1028.38,70.78l-26.66-40.47h5.77l23.28,36,23.38-36h5.51L1033,70.68v26.6h-4.62Z" transform="translate(-0.48 -5.31)"/><path class="cls-4" d="M279.8,168.52a20.45,20.45,0,0,1-13.3,5.06c-8.69,0-15.24-5.06-15.24-13.1v-.13c0-5.77,3.11-9.86,8.82-12.45a15.16,15.16,0,0,1-3.18-9.08v-.13c0-6.23,5-11.94,13.75-11.94,7.72,0,12.78,5.06,12.78,11.42v.13c0,6.09-3.89,9.66-9.53,11.87l6,6c1.49-2.34,3-5,4.41-7.78l7.33,4a83.58,83.58,0,0,1-6,9.6l6.68,6.68-7.33,5.12Zm-5.58-5.7L265.53,154c-3,1.56-4.22,3.77-4.22,6v.13c0,3.18,2.66,5.32,6.36,5.32A10.77,10.77,0,0,0,274.22,162.82Zm.52-23.94v-.13a4,4,0,0,0-4.28-4.22,4.28,4.28,0,0,0-4.41,4.61v.13c0,2,.78,3.5,2.66,5.64C272.66,143.42,274.74,141.73,274.74,138.88Z" transform="translate(-0.48 -5.31)"/><path class="cls-4" d="M319.11,127.53h18.55c10.83,0,17.38,6.42,17.38,15.7v.13c0,10.5-8.17,15.95-18.35,15.95H329.1v13.63h-10Zm17.9,22.9c5,0,7.91-3,7.91-6.88v-.13c0-4.47-3.11-6.87-8.1-6.87H329.1v13.88Z" transform="translate(-0.48 -5.31)"/><path class="cls-4" d="M361.4,138.17h9.86v7c2-4.8,5.25-7.91,11.09-7.65v10.31h-.52c-6.55,0-10.57,4-10.57,12.26v12.85H361.4Z" transform="translate(-0.48 -5.31)"/><path class="cls-4" d="M385.85,155.75v-.13c0-10,8-18.1,18.88-18.1s18.75,8,18.75,18v.13c0,10-8.05,18.09-18.88,18.09S385.85,165.73,385.85,155.75Zm27.9,0v-.13c0-5.13-3.7-9.6-9.15-9.6-5.64,0-9,4.34-9,9.47v.13c0,5.12,3.7,9.6,9.15,9.6C410.37,165.22,413.75,160.87,413.75,155.75Z" transform="translate(-0.48 -5.31)"/><path class="cls-4" d="M430.61,138.17h9.86v5a12.77,12.77,0,0,1,10.83-5.64c8.11,0,15.83,6.36,15.83,18v.13c0,11.61-7.59,18-15.83,18a13.36,13.36,0,0,1-10.83-5.19v14.92h-9.86Zm26.66,17.45v-.13c0-5.78-3.89-9.6-8.5-9.6s-8.43,3.82-8.43,9.6v.13c0,5.77,3.83,9.6,8.43,9.6S457.27,161.45,457.27,155.62Z" transform="translate(-0.48 -5.31)"/><path class="cls-4" d="M472.71,155.75v-.13c0-9.93,7.07-18.1,17.19-18.1,11.61,0,16.93,9,16.93,18.87,0,.78-.07,1.69-.13,2.6H482.5c1,4.47,4.09,6.81,8.5,6.81,3.31,0,5.71-1,8.43-3.57l5.65,5c-3.25,4-7.92,6.48-14.21,6.48C480.43,173.71,472.71,166.38,472.71,155.75Zm24.52-2.92c-.59-4.41-3.18-7.4-7.33-7.4s-6.75,2.92-7.53,7.4Z" transform="translate(-0.48 -5.31)"/><path class="cls-4" d="M514.16,138.17H524v7c2-4.8,5.25-7.91,11.09-7.65v10.31h-.52c-6.55,0-10.57,4-10.57,12.26v12.85h-9.86Z" transform="translate(-0.48 -5.31)"/><path class="cls-4" d="M542.89,163.08V146.6h-4.15v-8.43h4.15v-8.89h9.86v8.89h8.18v8.43h-8.18v14.85c0,2.27,1,3.38,3.18,3.38a10,10,0,0,0,4.87-1.24v7.92a14.59,14.59,0,0,1-7.79,2C547,173.52,542.89,171.12,542.89,163.08Z" transform="translate(-0.48 -5.31)"/><path class="cls-4" d="M567.74,181.11l3.31-7.14a8.9,8.9,0,0,0,4.21,1.37,3.29,3.29,0,0,0,3.44-2.27l-13.62-34.9h10.44l7.91,23.67L591,138.17h10.25l-13.36,35.61c-2.66,7.07-5.51,9.73-11.42,9.73A16.34,16.34,0,0,1,567.74,181.11Z" transform="translate(-0.48 -5.31)"/><path class="cls-4" d="M627.61,127.53h10.76l11.94,19.2,11.94-19.2H673v45.41h-9.92V143.29l-12.78,19.4h-.26l-12.65-19.2v29.45h-9.79Z" transform="translate(-0.48 -5.31)"/><path class="cls-4" d="M680.8,163v-.13c0-7.59,5.77-11.1,14-11.1a24.83,24.83,0,0,1,8.5,1.43v-.58c0-4.09-2.53-6.36-7.46-6.36a25.46,25.46,0,0,0-9.6,1.88l-2.47-7.52a30.63,30.63,0,0,1,13.49-2.79c5.39,0,9.28,1.43,11.74,3.89s3.77,6.42,3.77,11.09v20.18h-9.54v-3.77a13.37,13.37,0,0,1-10.51,4.41C686.18,173.58,680.8,169.82,680.8,163Zm22.63-2.27v-1.76a15.39,15.39,0,0,0-6.29-1.29c-4.21,0-6.81,1.68-6.81,4.8v.13c0,2.66,2.21,4.21,5.39,4.21C700.32,166.77,703.43,164.24,703.43,160.68Z" transform="translate(-0.48 -5.31)"/><path class="cls-4" d="M721.27,138.17h9.86v4.93c2.27-2.92,5.19-5.58,10.19-5.58,7.46,0,11.8,4.93,11.8,12.91v22.51h-9.86v-19.4c0-4.67-2.2-7.07-6-7.07s-6.17,2.4-6.17,7.07v19.4h-9.86Z" transform="translate(-0.48 -5.31)"/><path class="cls-4" d="M759.61,163v-.13c0-7.59,5.77-11.1,14-11.1a24.83,24.83,0,0,1,8.5,1.43v-.58c0-4.09-2.53-6.36-7.46-6.36a25.54,25.54,0,0,0-9.6,1.88l-2.47-7.52a30.63,30.63,0,0,1,13.49-2.79c5.39,0,9.28,1.43,11.75,3.89s3.76,6.42,3.76,11.09v20.18h-9.54v-3.77a13.37,13.37,0,0,1-10.51,4.41C765,173.58,759.61,169.82,759.61,163Zm22.64-2.27v-1.76a15.48,15.48,0,0,0-6.3-1.29c-4.21,0-6.81,1.68-6.81,4.8v.13c0,2.66,2.21,4.21,5.39,4.21C779.13,166.77,782.25,164.24,782.25,160.68Z" transform="translate(-0.48 -5.31)"/><path class="cls-4" d="M800.28,179.81l3.37-7.39a22.71,22.71,0,0,0,11.74,3.17c6.75,0,9.93-3.24,9.93-9.47v-1.68c-2.92,3.5-6.1,5.64-11.35,5.64-8.11,0-15.44-5.9-15.44-16.22v-.13c0-10.37,7.46-16.21,15.44-16.21,5.38,0,8.56,2.27,11.22,5.19v-4.54h9.86v26.92c0,6.22-1.5,10.76-4.41,13.68-3.25,3.25-8.24,4.67-15,4.67A32.92,32.92,0,0,1,800.28,179.81Zm25-25.95v-.13c0-4.73-3.7-8-8.5-8s-8.43,3.31-8.43,8v.13c0,4.8,3.63,8,8.43,8S825.32,158.6,825.32,153.86Z" transform="translate(-0.48 -5.31)"/><path class="cls-4" d="M842.18,155.75v-.13c0-9.93,7.07-18.1,17.19-18.1,11.61,0,16.93,9,16.93,18.87,0,.78-.06,1.69-.13,2.6H852c1,4.47,4.08,6.81,8.49,6.81,3.31,0,5.71-1,8.44-3.57l5.64,5c-3.24,4-7.91,6.48-14.21,6.48C849.9,173.71,842.18,166.38,842.18,155.75Zm24.52-2.92c-.58-4.41-3.18-7.4-7.33-7.4s-6.74,2.92-7.52,7.4Z" transform="translate(-0.48 -5.31)"/><path class="cls-4" d="M883.63,138.17h9.86v4.93c2.27-2.92,5.26-5.58,10.25-5.58,4.54,0,8,2,9.79,5.51A14.32,14.32,0,0,1,925,137.52c7.33,0,11.74,4.41,11.74,12.78v22.64h-9.86v-19.4c0-4.67-2.07-7.07-5.77-7.07s-6,2.4-6,7.07v19.4h-9.86v-19.4c0-4.67-2.07-7.07-5.77-7.07s-6,2.4-6,7.07v19.4h-9.86Z" transform="translate(-0.48 -5.31)"/><path class="cls-4" d="M943.57,155.75v-.13c0-9.93,7.07-18.1,17.19-18.1,11.61,0,16.93,9,16.93,18.87,0,.78-.07,1.69-.13,2.6h-24.2c1,4.47,4.09,6.81,8.5,6.81,3.31,0,5.71-1,8.43-3.57l5.65,5c-3.25,4-7.92,6.48-14.21,6.48C951.29,173.71,943.57,166.38,943.57,155.75Zm24.52-2.92c-.59-4.41-3.18-7.4-7.33-7.4s-6.75,2.92-7.53,7.4Z" transform="translate(-0.48 -5.31)"/><path class="cls-4" d="M985,138.17h9.86v4.93c2.27-2.92,5.19-5.58,10.18-5.58,7.46,0,11.81,4.93,11.81,12.91v22.51H1007v-19.4c0-4.67-2.21-7.07-6-7.07s-6.16,2.4-6.16,7.07v19.4H985Z" transform="translate(-0.48 -5.31)"/><path class="cls-4" d="M1027.05,163.08V146.6h-4.15v-8.43h4.15v-8.89h9.86v8.89h8.17v8.43h-8.17v14.85c0,2.27,1,3.38,3.18,3.38a10,10,0,0,0,4.86-1.24v7.92a14.52,14.52,0,0,1-7.78,2C1031.14,173.52,1027.05,171.12,1027.05,163.08Z" transform="translate(-0.48 -5.31)"/></g></g></svg>